<svg width="12" height="11" viewBox="0 0 12 11" fill="none" xmlns="http://www.w3.org/2000/svg">
<path fill-rule="evenodd" clip-rule="evenodd" d="M12 5.25036C12 5.44925 11.921 5.64 11.7804 5.78063C11.6397 5.92127 11.449 6.00028 11.2501 6.00028L2.56155 6.00028L5.78169 9.21892C5.85142 9.28864 5.90673 9.37142 5.94446 9.46252C5.9822 9.55361 6.00162 9.65125 6.00162 9.74986C6.00162 9.84846 5.9822 9.9461 5.94446 10.0372C5.90673 10.1283 5.85142 10.2111 5.78169 10.2808C5.71197 10.3505 5.6292 10.4058 5.5381 10.4436C5.447 10.4813 5.34936 10.5007 5.25075 10.5007C5.15215 10.5007 5.05451 10.4813 4.96341 10.4436C4.87231 10.4058 4.78954 10.3505 4.71981 10.2808L0.220315 5.7813C0.150478 5.71164 0.0950706 5.62889 0.057265 5.53778C0.0194595 5.44667 -2.33812e-07 5.349 -2.29501e-07 5.25036C-2.25189e-07 5.15172 0.0194595 5.05405 0.0572651 4.96294C0.0950706 4.87183 0.150478 4.78908 0.220315 4.71942L4.71981 0.219923C4.78954 0.150199 4.87231 0.0948903 4.96341 0.0571558C5.05451 0.0194214 5.15215 -2.99329e-07 5.25075 -2.95019e-07C5.34936 -2.90709e-07 5.447 0.0194214 5.5381 0.0571559C5.6292 0.0948903 5.71197 0.150199 5.78169 0.219923C5.92251 0.360737 6.00162 0.551722 6.00162 0.750864C6.00162 0.849468 5.9822 0.947108 5.94446 1.03821C5.90673 1.12931 5.85142 1.21208 5.78169 1.2818L2.56155 4.50044L11.2501 4.50045C11.449 4.50045 11.6397 4.57945 11.7804 4.72009C11.921 4.86073 12 5.05147 12 5.25036Z" fill="black"/>
</svg>
